<svg width="394" height="357" viewBox="0 0 394 357" fill="none" xmlns="http://www.w3.org/2000/svg">
<path d="M373.517 46.7285C374.507 47.2235 374.507 47.2235 375.517 47.7285C374.406 48.8235 374.406 48.8235 373.273 49.9407C370.477 52.6993 367.689 55.465 364.903 58.2327C363.705 59.4204 362.505 60.6063 361.304 61.7903C353.873 69.1154 346.997 76.5398 340.517 84.7285C338.583 87.021 336.612 89.2799 334.642 91.541C330.187 96.697 325.908 101.96 321.73 107.342C318.249 111.821 314.677 116.218 311.079 120.604C305.156 127.851 299.496 135.27 293.94 142.802C292.583 144.638 291.217 146.467 289.849 148.295C268.613 176.786 249.625 207.03 230.26 236.804C229.194 238.441 228.128 240.078 227.061 241.714C224.509 245.63 221.988 249.561 219.517 253.529C218.789 254.685 218.789 254.685 218.047 255.865C217.149 257.296 216.259 258.733 215.38 260.176C211.637 266.11 206.57 271.965 199.517 273.729C195.528 274.164 193.199 274.062 189.579 272.291C181.827 265.805 176.701 258.099 171.432 249.58C157.716 227.443 142.442 205.99 126.646 185.287C124.475 182.29 123.991 179.664 124.052 175.947C125.359 169.708 131.341 165.673 136.329 162.291C140.88 159.416 144.145 157.943 149.61 158.014C155.902 159.561 160.218 165.147 164.517 169.729C165.03 170.263 165.544 170.797 166.074 171.348C172.093 177.609 177.763 184.102 183.204 190.873C185.948 194.262 188.758 197.592 191.579 200.916C192.069 201.494 192.559 202.071 193.064 202.666C194.214 204.021 195.365 205.375 196.517 206.729C199.788 205.343 201.393 203.911 203.454 201.041C207.22 196.019 211.283 191.313 215.409 186.589C218.588 182.949 221.742 179.292 224.859 175.599C236.778 161.533 249.686 148.392 262.735 135.38C264.981 133.14 267.22 130.894 269.46 128.648C270.915 127.194 272.37 125.741 273.825 124.287C274.481 123.63 275.136 122.972 275.811 122.295C279.669 118.456 283.636 114.799 287.76 111.247C290.187 109.149 292.536 106.969 294.892 104.791C299.056 100.998 303.305 97.393 307.735 93.916C309.834 92.2655 311.914 90.6 313.985 88.916C322.279 82.1867 330.742 75.8156 339.517 69.7285C340.136 69.2972 340.756 68.8658 341.394 68.4214C352.004 61.044 362.746 53.8681 373.517 46.7285Z" fill="#F19F0F"/>
<path d="M196.648 0.3125C196.648 0.3125 200.66 3.51993 203.061 5.52906C204.069 6.36667 204.069 6.36667 205.097 7.2212C205.812 7.82166 206.527 8.42212 207.264 9.04078C208.796 10.3147 210.329 11.5881 211.862 12.8611C212.638 13.5072 213.414 14.1534 214.214 14.8191C217.692 17.7062 221.193 20.5648 224.702 23.4158C225.69 24.2197 225.69 24.2197 226.698 25.0398C230.974 28.5071 235.294 31.911 239.639 35.2908C245.082 39.528 250.337 43.9502 255.552 48.4634C259.526 51.8978 263.572 55.2141 267.69 58.4744C277.877 66.6046 287.961 74.8558 297.514 83.7283C295.933 87.8252 292.971 90.3229 289.764 93.1658C289.251 93.6305 288.738 94.0952 288.209 94.574C284.719 97.7181 281.138 100.739 277.514 103.728C274.029 102.184 271.371 100.104 268.452 97.6658C267.474 96.855 266.497 96.0442 265.491 95.2088C264.508 94.3902 263.526 93.5717 262.514 92.7283C260.787 91.3095 259.057 89.8929 257.327 88.4783C256.423 87.7384 255.519 86.9985 254.588 86.2361C252.303 84.3719 250.014 82.5127 247.721 80.658C241.286 75.4502 234.876 70.2244 228.577 64.8533C224.365 61.2633 220.094 57.7789 215.702 54.4119C209.526 49.6592 202.927 44.9973 196.967 39.9783C194.161 41.274 192.502 42.4353 190.194 44.4861C189.581 45.0252 188.968 45.5644 188.337 46.1199C187.373 46.9779 187.373 46.9779 186.389 47.8533C182.063 51.6581 177.734 55.4185 173.202 58.9783C168.986 62.2967 165.029 65.842 161.065 69.4549C157.643 72.5048 154.09 75.3751 150.522 78.2518C148.274 80.1022 146.07 81.9746 143.881 83.8924C143.26 84.4347 142.639 84.977 141.999 85.5357C140.786 86.5993 139.576 87.6683 138.372 88.7432C137.534 89.4764 137.534 89.4764 136.678 90.2244C136.188 90.6594 135.697 91.0944 135.192 91.5425C133.095 93.0247 130.918 93.8477 128.514 94.7283C128.315 89.6057 128.171 84.4853 128.075 79.3597C128.035 77.6194 127.98 75.8793 127.911 74.1399C127.349 59.7334 127.349 59.7333 130.157 54.9006C132.162 52.8738 134.141 51.2986 136.514 49.7283C137.796 48.6107 137.796 48.6107 139.104 47.4705C139.879 46.8543 140.653 46.2381 141.452 45.6033C142.382 44.8556 143.313 44.108 144.272 43.3376C145.038 42.7237 145.038 42.7237 145.82 42.0974C148.445 39.9758 151.04 37.8174 153.64 35.6641C159.577 30.7474 165.546 25.8879 171.639 21.1658C179.873 14.7746 196.648 0.3125 196.648 0.3125Z" fill="#A74FCB"/>
<path d="M303.516 146.729C303.516 146.729 320.402 160.154 328.809 166.424C330.516 167.729 330.516 167.729 332.516 169.729C332.724 172.235 332.809 174.632 332.806 177.141C332.813 177.905 332.82 178.67 332.827 179.457C332.846 181.996 332.849 184.534 332.852 187.072C332.858 188.839 332.865 190.606 332.872 192.373C332.884 196.085 332.887 199.797 332.886 203.51C332.886 208.246 332.913 212.982 332.948 217.719C332.97 221.374 332.974 225.028 332.973 228.683C332.975 230.428 332.984 232.172 333 233.917C333.101 246.487 332.313 256.551 323.297 266.045C315.989 272.952 307.511 275.208 297.691 275.069C296.446 275.07 296.446 275.07 295.175 275.07C292.464 275.068 289.754 275.045 287.043 275.021C285.15 275.016 283.257 275.012 281.364 275.009C276.408 274.997 271.451 274.968 266.495 274.935C261.427 274.904 256.359 274.89 251.291 274.875C241.366 274.843 231.441 274.792 221.516 274.729C224.627 266.665 237.93 244.488 237.93 244.488C237.93 244.488 258.425 244.087 267.772 244.362C271.302 244.452 274.832 244.468 278.363 244.488C284.557 244.526 290.746 244.632 296.938 244.793C299.635 244.851 299.635 244.851 302.516 243.729C302.846 211.719 303.516 146.729 303.516 146.729Z" fill="#A949CD"/>
<path d="M90.5166 145.729C90.5254 147.5 90.5254 147.5 90.5343 149.308C90.5915 160.432 90.6643 171.557 90.7523 182.681C90.797 188.4 90.8363 194.119 90.863 199.838C90.889 205.356 90.9294 210.874 90.9798 216.392C90.9965 218.498 91.008 220.605 91.0142 222.712C91.0238 225.66 91.0518 228.606 91.0842 231.554C91.082 232.865 91.082 232.865 91.0798 234.202C91.1334 237.637 91.2454 240.137 92.688 243.284C95.2743 245.327 96.9345 245.146 100.206 245.021C101.375 244.989 102.544 244.957 103.748 244.924C105.013 244.875 106.279 244.826 107.583 244.775C109.576 244.743 111.568 244.71 113.561 244.683C118.474 244.614 128.292 244.314 128.292 244.314H157.84L172.517 274.729C172.517 274.729 151.184 274.81 140.517 274.832C135.564 274.843 130.61 274.857 125.657 274.879C120.872 274.901 116.087 274.913 111.302 274.918C109.481 274.922 107.66 274.929 105.839 274.94C103.279 274.955 100.718 274.956 98.1574 274.956C97.4137 274.963 96.6699 274.97 95.9036 274.977C85.7144 274.938 78.2709 272.454 70.5166 265.729C64.1811 258.941 61.081 251.928 61.0173 242.641C61.0008 241.865 60.9843 241.088 60.9673 240.288C60.9187 237.739 60.8931 235.191 60.872 232.643C60.8623 231.767 60.8526 230.891 60.8426 229.988C60.7919 225.355 60.759 220.722 60.7409 216.088C60.7189 211.32 60.6364 206.555 60.5398 201.788C60.4762 198.104 60.4576 194.421 60.451 190.737C60.4401 188.98 60.4126 187.223 60.3676 185.467C60.0404 171.78 60.0404 171.78 63.7058 166.686C66.2026 164.415 68.6837 162.552 71.5166 160.729C72.5752 159.865 73.6236 158.989 74.6533 158.092C75.495 157.415 76.3368 156.738 77.2041 156.041C80.394 153.462 83.5486 150.861 86.6416 148.166C89.5166 145.729 89.5166 145.729 90.5166 145.729Z" fill="#532984"/>
<path d="M84.5156 44.7285C95.0756 44.7285 105.636 44.7285 116.516 44.7285C116.747 52.5062 116.967 60.2712 117.085 68.0494C117.143 71.6718 117.22 75.2913 117.345 78.9121C117.466 82.4072 117.531 85.8996 117.559 89.3966C117.589 91.3637 117.675 93.3297 117.762 95.2951C117.766 100.756 117.638 104.306 114.183 108.684C111.401 111.239 108.562 113.499 105.516 115.729C103.718 117.2 101.925 118.678 100.141 120.166C99.237 120.896 98.3334 121.625 97.4023 122.377C94.2155 124.973 91.0821 127.626 87.9531 130.291C84.2073 133.478 80.4376 136.616 76.5781 139.666C69.099 146.383 68.8992 146.45 55.6997 158.092C51.0131 162.226 48.3612 164.889 42.3115 165.448C35.9972 165.726 29.7034 165.514 23.3906 165.291C21.172 165.246 18.9532 165.205 16.7344 165.168C11.3262 165.069 5.92132 164.919 0.515625 164.729C3.2035 161.298 5.78466 158.501 9.20312 155.791C10.1686 155.016 11.1341 154.242 12.1289 153.443C12.9326 152.801 12.9326 152.801 13.7524 152.146C17.1552 149.41 20.521 146.63 23.8906 143.854C24.6214 143.252 25.3523 142.65 26.1052 142.03C33.1846 136.193 40.1862 130.267 47.1714 124.318C53.3887 119.026 59.6312 113.781 66.0312 108.709C69.744 105.749 73.4053 102.728 77.0703 99.709C79.5156 97.7285 79.5156 97.7285 81.6343 96.4129C83.7092 94.881 83.7092 94.881 84.0346 92.4696C84.0479 91.1472 84.0479 91.1472 84.0615 89.7981C84.0812 88.7973 84.101 87.7965 84.1213 86.7653C84.1225 85.6871 84.1237 84.6089 84.125 83.498C84.1415 82.3925 84.1581 81.2869 84.1751 80.1479C84.2237 76.6122 84.245 73.077 84.2656 69.541C84.2938 67.1458 84.3237 64.7506 84.3555 62.3555C84.4329 56.4796 84.4732 50.6051 84.5156 44.7285Z" fill="#562A85"/>
<path d="M196.739 0.267578C197.07 13.4515 196.921 39.9327 196.921 39.9327L194.036 42.1897C194.036 42.1897 187.898 47.4038 184.514 49.7293C183.237 50.7523 181.964 51.7817 180.702 52.823C179.65 53.6171 178.598 54.4112 177.514 55.2293C172.377 59.1689 167.563 63.3259 162.838 67.7469C158.851 71.4636 154.701 74.9133 150.452 78.3228C148.227 80.1449 146.051 81.9912 143.889 83.8853C143.267 84.4288 142.645 84.9722 142.004 85.5321C140.788 86.5974 139.578 87.668 138.372 88.7445C137.813 89.2331 137.254 89.7217 136.678 90.2252C136.188 90.6602 135.697 91.0951 135.192 91.5433C133.095 93.0255 130.918 93.8485 128.514 94.7291C128.315 89.6064 128.171 84.4861 128.075 79.3604C128.035 77.6201 127.98 75.8801 127.911 74.1407C127.349 59.7342 127.349 59.7343 130.157 54.9016C132.162 52.8748 134.141 51.2996 136.514 49.7293C137.796 48.6117 137.796 48.6117 139.104 47.4715C139.879 46.8553 140.653 46.2391 141.452 45.6043C142.382 44.8566 143.313 44.109 144.272 43.3387C145.038 42.7247 145.038 42.7247 145.82 42.0984C148.445 39.9768 151.04 37.8184 153.64 35.6651C159.577 30.7484 165.545 25.8888 171.639 21.1668C176.01 17.7755 196.739 0.267578 196.739 0.267578Z" fill="#552A85"/>
<path d="M331.514 113.729C334.431 115.075 336.773 116.613 339.237 118.67C339.934 119.249 340.631 119.827 341.35 120.424C342.085 121.04 342.819 121.656 343.576 122.291C345.119 123.574 346.662 124.856 348.205 126.139C348.951 126.76 349.696 127.382 350.464 128.022C352.968 130.106 355.488 132.17 358.014 134.229C361.961 137.452 365.895 140.691 369.826 143.935C381.363 153.739 381.363 153.739 393.514 162.729C393.514 163.389 393.514 164.049 393.514 164.729C387.147 164.958 380.78 165.115 374.41 165.223C372.247 165.268 370.084 165.329 367.922 165.407C347.625 166.123 348.119 165.856 341.871 160.208C335.623 154.559 333.684 152.531 329.342 149.014C328.409 148.26 327.475 147.505 326.514 146.729C324.449 145.044 322.388 143.355 320.326 141.666C319.405 140.912 318.483 140.158 317.533 139.381C316.534 138.563 315.5 137.664 314.48 136.83C319.216 130.757 319.208 130.24 323.514 124.604C324.598 123.185 325.681 121.765 326.764 120.346C327.243 119.723 327.723 119.1 328.217 118.458C329.37 116.921 330.448 115.328 331.514 113.729Z" fill="#A94DCA"/>
<path d="M200.516 112.729C206.786 112.729 213.056 112.729 219.516 112.729C219.516 119.659 219.516 126.589 219.516 133.729C213.246 133.729 206.976 133.729 200.516 133.729C200.516 126.799 200.516 119.869 200.516 112.729Z" fill="#5E338A"/>
<path d="M173.516 112.729C179.786 112.729 186.056 112.729 192.516 112.729C192.516 119.329 192.516 125.929 192.516 132.729C186.246 132.729 179.976 132.729 173.516 132.729C173.516 126.129 173.516 119.529 173.516 112.729Z" fill="#542C85"/>
<path d="M200.516 85.7285C206.786 85.7285 213.056 85.7285 219.516 85.7285C219.516 91.9985 219.516 98.2685 219.516 104.729C213.246 104.729 206.976 104.729 200.516 104.729C200.516 98.4585 200.516 92.1885 200.516 85.7285Z" fill="#5A3288"/>
<path d="M173.516 85.7285C179.786 85.7285 186.056 85.7285 192.516 85.7285C192.516 91.9985 192.516 98.2685 192.516 104.729C186.246 104.729 179.976 104.729 173.516 104.729C173.516 98.4585 173.516 92.1885 173.516 85.7285Z" fill="#592F89"/>
<path d="M293.516 81.7285C294.836 82.3885 296.156 83.0485 297.516 83.7285C296.856 85.0485 296.196 86.3685 295.516 87.7285C294.526 87.3985 293.536 87.0685 292.516 86.7285C292.846 85.0785 293.176 83.4285 293.516 81.7285Z" fill="#A050C2"/>
<g clip-path="url(#clip0_3597_727)">
<path d="M326.145 338.658L342.24 348.569L337.969 329.89L352.189 317.323L333.464 315.702L326.145 298.086L318.827 315.702L300.102 317.323L314.321 329.89L310.05 348.569L326.145 338.658Z" fill="#F19F0F"/>
</g>
<g clip-path="url(#clip1_3597_727)">
<path d="M261.548 338.658L277.643 348.569L273.372 329.89L287.591 317.323L268.866 315.702L261.548 298.086L254.229 315.702L235.504 317.323L249.724 329.89L245.453 348.569L261.548 338.658Z" fill="#F19F0F"/>
</g>
<g clip-path="url(#clip2_3597_727)">
<path d="M196.95 338.658L213.045 348.569L208.774 329.89L222.994 317.323L204.268 315.702L196.95 298.086L189.632 315.702L170.906 317.323L185.126 329.89L180.855 348.569L196.95 338.658Z" fill="#F19F0F"/>
</g>
<g clip-path="url(#clip3_3597_727)">
<path d="M132.356 338.658L148.451 348.569L144.18 329.89L158.4 317.323L139.675 315.702L132.356 298.086L125.038 315.702L106.312 317.323L120.532 329.89L116.261 348.569L132.356 338.658Z" fill="#F19F0F"/>
</g>
<g clip-path="url(#clip4_3597_727)">
<path d="M67.7586 338.658L83.8536 348.569L79.5825 329.89L93.8024 317.323L75.0769 315.702L67.7586 298.086L60.4403 315.702L41.7148 317.323L55.9347 329.89L51.6636 348.569L67.7586 338.658Z" fill="#F19F0F"/>
</g>
<defs>
<clipPath id="clip0_3597_727">
<rect width="62.505" height="63.7677" fill="white" transform="translate(294.895 292.771)"/>
</clipPath>
<clipPath id="clip1_3597_727">
<rect width="62.505" height="63.7677" fill="white" transform="translate(230.297 292.771)"/>
</clipPath>
<clipPath id="clip2_3597_727">
<rect width="62.505" height="63.7677" fill="white" transform="translate(165.699 292.771)"/>
</clipPath>
<clipPath id="clip3_3597_727">
<rect width="62.505" height="63.7677" fill="white" transform="translate(101.105 292.771)"/>
</clipPath>
<clipPath id="clip4_3597_727">
<rect width="62.505" height="63.7677" fill="white" transform="translate(36.5078 292.771)"/>
</clipPath>
</defs>
</svg>
